<mxfile host="app.diagrams.net" modified="2024-01-26T20:12:32.482Z" agent="Mozilla/5.0 (Windows NT 10.0; Win64; x64) AppleWebKit/537.36 (KHTML, like Gecko) Chrome/120.0.0.0 Safari/537.36" etag="TXdvXBu49faZSAuBFKJ8" version="23.0.2" type="google">
  <diagram name="Page-1" id="mPhOlYmXuFZFDHjT9ovG">
    <mxGraphModel grid="1" page="1" gridSize="10" guides="1" tooltips="1" connect="1" arrows="1" fold="1" pageScale="1" pageWidth="850" pageHeight="1100" math="0" shadow="0">
      <root>
        <mxCell id="0" />
        <mxCell id="1" parent="0" />
        <mxCell id="ksABDUYITWmlOmz5YnNM-1" value="تغییر نقش افراد" style="swimlane;html=1;childLayout=stackLayout;resizeParent=1;resizeParentMax=0;horizontal=0;startSize=20;horizontalStack=0;" vertex="1" parent="1">
          <mxGeometry x="15" y="130" width="900" height="200" as="geometry" />
        </mxCell>
        <mxCell id="ksABDUYITWmlOmz5YnNM-2" value="مدیر سامانه" style="swimlane;html=1;startSize=20;horizontal=0;" vertex="1" parent="ksABDUYITWmlOmz5YnNM-1">
          <mxGeometry x="20" width="880" height="110" as="geometry" />
        </mxCell>
        <mxCell id="9HsMeeH3lVsEiJ-bBNnP-2" style="edgeStyle=orthogonalEdgeStyle;rounded=0;orthogonalLoop=1;jettySize=auto;html=1;" edge="1" parent="ksABDUYITWmlOmz5YnNM-2" source="ksABDUYITWmlOmz5YnNM-4" target="9HsMeeH3lVsEiJ-bBNnP-1">
          <mxGeometry relative="1" as="geometry" />
        </mxCell>
        <mxCell id="ksABDUYITWmlOmz5YnNM-4" value="" style="ellipse;fillColor=strokeColor;html=1;" vertex="1" parent="ksABDUYITWmlOmz5YnNM-2">
          <mxGeometry x="70" y="50" width="30" height="30" as="geometry" />
        </mxCell>
        <mxCell id="3zGB5L3QHBeel2qYfL21-2" value="" style="edgeStyle=orthogonalEdgeStyle;rounded=0;orthogonalLoop=1;jettySize=auto;html=1;" edge="1" parent="ksABDUYITWmlOmz5YnNM-2" source="9HsMeeH3lVsEiJ-bBNnP-1" target="3zGB5L3QHBeel2qYfL21-1">
          <mxGeometry relative="1" as="geometry" />
        </mxCell>
        <mxCell id="9HsMeeH3lVsEiJ-bBNnP-1" value="&lt;font style=&quot;font-size: 14px;&quot;&gt;درخواست تغییر نقش&amp;nbsp;&lt;/font&gt;یک&amp;nbsp; کاربر&lt;br&gt;" style="html=1;align=center;verticalAlign=top;rounded=1;absoluteArcSize=1;arcSize=13;dashed=0;whiteSpace=wrap;" vertex="1" parent="ksABDUYITWmlOmz5YnNM-2">
          <mxGeometry x="155" y="45" width="140" height="40" as="geometry" />
        </mxCell>
        <mxCell id="3zGB5L3QHBeel2qYfL21-1" value="جستجوی کاربر&amp;nbsp; &amp;nbsp; &amp;nbsp; &amp;nbsp; &amp;nbsp;&amp;nbsp;" style="shape=mxgraph.uml25.behaviorAction;html=1;rounded=1;absoluteArcSize=1;arcSize=10;align=center;spacingLeft=5;whiteSpace=wrap;" vertex="1" parent="ksABDUYITWmlOmz5YnNM-2">
          <mxGeometry x="345" y="35" width="190" height="60" as="geometry" />
        </mxCell>
        <mxCell id="3zGB5L3QHBeel2qYfL21-9" value="" style="edgeStyle=orthogonalEdgeStyle;rounded=0;orthogonalLoop=1;jettySize=auto;html=1;" edge="1" parent="ksABDUYITWmlOmz5YnNM-2" source="3zGB5L3QHBeel2qYfL21-3" target="3zGB5L3QHBeel2qYfL21-7">
          <mxGeometry relative="1" as="geometry">
            <mxPoint x="575" y="65" as="targetPoint" />
          </mxGeometry>
        </mxCell>
        <mxCell id="3zGB5L3QHBeel2qYfL21-10" value="کاربر" style="edgeLabel;html=1;align=center;verticalAlign=middle;resizable=0;points=[];" connectable="0" vertex="1" parent="3zGB5L3QHBeel2qYfL21-9">
          <mxGeometry x="-0.041" y="1" relative="1" as="geometry">
            <mxPoint x="-46" y="-18" as="offset" />
          </mxGeometry>
        </mxCell>
        <mxCell id="3zGB5L3QHBeel2qYfL21-3" value="" style="whiteSpace=wrap;html=1;aspect=fixed;" vertex="1" parent="ksABDUYITWmlOmz5YnNM-2">
          <mxGeometry x="535" y="55" width="20" height="20" as="geometry" />
        </mxCell>
        <mxCell id="3zGB5L3QHBeel2qYfL21-7" value="&lt;font style=&quot;font-size: 14px;&quot;&gt;تغییر نقش کاربر&lt;/font&gt;" style="shape=mxgraph.uml25.action;html=1;align=center;verticalAlign=middle;absoluteArcSize=1;arcSize=10;dashed=0;spacingLeft=10;flipH=1;whiteSpace=wrap;" vertex="1" parent="ksABDUYITWmlOmz5YnNM-2">
          <mxGeometry x="650" y="45" width="110" height="40" as="geometry" />
        </mxCell>
        <mxCell id="ksABDUYITWmlOmz5YnNM-6" value="سامانه" style="swimlane;html=1;startSize=20;horizontal=0;" vertex="1" parent="ksABDUYITWmlOmz5YnNM-1">
          <mxGeometry x="20" y="110" width="880" height="90" as="geometry">
            <mxRectangle x="20" y="180" width="580" height="30" as="alternateBounds" />
          </mxGeometry>
        </mxCell>
        <mxCell id="ksABDUYITWmlOmz5YnNM-7" value="" style="ellipse;html=1;shape=endState;fillColor=strokeColor;" vertex="1" parent="ksABDUYITWmlOmz5YnNM-6">
          <mxGeometry x="815" y="20" width="30" height="30" as="geometry" />
        </mxCell>
        <mxCell id="RQctnDBxeSe_e9nEUGRG-2" style="edgeStyle=orthogonalEdgeStyle;rounded=0;orthogonalLoop=1;jettySize=auto;html=1;" edge="1" parent="ksABDUYITWmlOmz5YnNM-6" source="9HsMeeH3lVsEiJ-bBNnP-3" target="ksABDUYITWmlOmz5YnNM-7">
          <mxGeometry relative="1" as="geometry" />
        </mxCell>
        <mxCell id="9HsMeeH3lVsEiJ-bBNnP-3" value="&lt;span style=&quot;font-size: 14px;&quot;&gt;تغییر نقش کاربر&lt;/span&gt;" style="html=1;align=center;verticalAlign=top;rounded=1;absoluteArcSize=1;arcSize=13;dashed=0;whiteSpace=wrap;" vertex="1" parent="ksABDUYITWmlOmz5YnNM-6">
          <mxGeometry x="635" y="15" width="140" height="40" as="geometry" />
        </mxCell>
        <mxCell id="RQctnDBxeSe_e9nEUGRG-3" style="edgeStyle=orthogonalEdgeStyle;rounded=0;orthogonalLoop=1;jettySize=auto;html=1;" edge="1" parent="ksABDUYITWmlOmz5YnNM-1" source="3zGB5L3QHBeel2qYfL21-7" target="9HsMeeH3lVsEiJ-bBNnP-3">
          <mxGeometry relative="1" as="geometry" />
        </mxCell>
      </root>
    </mxGraphModel>
  </diagram>
</mxfile>
